<?xml version="1.0" standalone="no"?>
<!DOCTYPE svg PUBLIC "-//W3C//DTD SVG 20010904//EN"
 "http://www.w3.org/TR/2001/REC-SVG-20010904/DTD/svg10.dtd">
<svg version="1.0" xmlns="http://www.w3.org/2000/svg"
 width="100.000000pt" height="100.000000pt" viewBox="0 0 100.000000 100.000000"
 preserveAspectRatio="xMidYMid meet">
<g transform="translate(0.000000,100.000000) scale(0.100000,-0.100000)"
fill="#000000" stroke="none">
<path d="M392 923 c-7 -3 -32 -46 -56 -96 -23 -51 -53 -101 -65 -111 -12 -11
-59 -38 -104 -61 -73 -37 -82 -45 -82 -70 0 -15 7 -31 15 -35 8 -5 44 -22 80
-38 83 -39 114 -72 164 -174 60 -120 79 -118 147 14 48 91 78 119 176 165 120
56 117 78 -19 150 -101 53 -131 85 -168 180 -29 74 -49 92 -88 76z m70 -91
c39 -96 72 -130 177 -185 50 -27 91 -55 91 -62 0 -8 -33 -30 -73 -48 -97 -45
-138 -83 -184 -172 -22 -43 -44 -75 -53 -75 -10 0 -23 25 -38 71 -40 124 -72
156 -192 194 -30 10 -59 20 -63 22 -14 8 14 32 46 39 108 23 162 83 221 246
10 28 22 45 29 42 7 -2 24 -35 39 -72z"/>
<path d="M732 378 c-22 -41 -69 -88 -110 -110 -48 -25 -42 -42 28 -76 19 -9
45 -33 57 -52 48 -74 53 -75 98 -9 17 24 50 54 73 67 54 30 55 55 3 82 -40 20
-63 45 -93 99 -22 39 -35 39 -56 -1z m43 -19 c10 -31 62 -85 95 -99 16 -7 30
-15 30 -19 0 -3 -20 -16 -43 -29 -28 -14 -52 -38 -66 -63 -12 -21 -26 -39 -31
-39 -4 0 -15 17 -23 38 -17 43 -30 55 -71 69 -43 13 -41 26 4 45 33 14 44 26
62 67 22 55 33 62 43 30z"/>
</g>
</svg>
