<svg version="1.1" xmlns="http://www.w3.org/2000/svg" style="display: block;" viewBox="0 0 1024 1064" width="256" height="266" preserveAspectRatio="none">
<path transform="translate(0,0)" fill="rgb(254,211,106)" d="M 107.144 531.361 C 104.652 497.815 109.908 457.529 119.441 425.427 C 122.701 414.451 123.766 402.359 127.217 390.962 C 139.905 349.05 163.414 311.664 186.285 274.696 C 197.595 257.1 226.991 228.195 243.094 213.143 C 280.128 178.526 333.577 148.816 380.655 130.671 C 400.624 122.974 431.401 120.614 452.453 112.617 C 481.703 104.571 527.263 110.249 557.965 109.767 C 563.611 110.598 578.287 110.374 583.037 112.638 C 600.93 121.112 632.702 123.09 648.644 129.406 C 711.639 154.365 774.875 191.951 821.058 242.028 C 854.652 278.454 883.652 331.559 901.606 377.649 C 913.126 407.223 924.104 441.175 926.145 472.887 C 927.206 489.481 929.431 506.944 929.063 523.322 C 930.69 539.249 928.585 554.644 928.072 570.322 C 927.219 596.363 924.112 620.706 917.84 645.996 C 915.818 654.147 911.172 666.267 907.973 674.462 C 904.55 683.231 901.31 695.437 897.624 703.233 C 878.38 743.941 852.376 781.586 824.67 816.971 C 818.847 824.407 800.382 840.346 792.754 847.373 C 760.01 877.543 725.044 900.781 684.494 918.939 C 674.369 922.746 663.893 926.026 653.573 929.298 C 644.118 932.296 633.313 937.816 623.693 939.579 C 594.426 944.943 563.827 949.382 534.426 953.691 C 508.644 957.47 479.79 952.396 454.362 948.288 C 440.099 945.619 420.93 943.219 407.254 939.396 C 352.298 924.033 301.52 897.672 257.634 861.083 C 246.141 851.501 218.329 825.67 209.029 813.835 C 176.245 771.769 148.112 725.354 129.158 675.381 C 124.267 662.485 123.034 648.07 118.837 636.059 C 106.069 599.517 106.776 569.583 107.144 531.361 z"/>
<path transform="translate(0,0)" fill="rgb(254,166,27)" d="M 107.144 531.361 C 110.7 541.073 109.666 553.492 109.694 564.305 C 109.748 584.66 111.091 605.849 117.517 625.357 C 119.176 630.393 120.623 630.299 124.625 632.028 C 125.135 633.622 125.196 634.285 126.418 635.459 L 130.536 633.89 C 131.798 635.104 132.988 636.333 134.21 637.588 L 136.071 637.492 C 142.406 629.324 123.83 588.698 123.916 576.506 C 123.961 570.29 118.961 540.124 122.445 535.284 C 124.228 574.452 126.22 586.823 138.598 624.56 C 155.194 678.578 185.279 729.128 223.437 770.808 C 250.192 800.032 277.203 824.385 311.621 844.71 C 370.513 879.487 432.053 900.028 500.527 902.131 C 558.078 903.899 603.039 897.421 656.026 873.839 C 709.629 854.269 748.765 832.516 789.445 792.332 C 818.545 763.588 836.033 743.436 857.214 706.709 C 873.399 678.646 894.331 654.081 899.178 620.037 C 900.433 611.221 903.833 582.024 909.289 576.932 C 907.018 582.343 903.019 589.748 904.354 595.764 C 904.801 597.777 905.857 599.543 907.609 600.647 C 910.394 602.401 913.836 602.575 916.978 601.763 C 919.906 601.006 922.879 599.204 924.164 596.372 C 928.516 586.783 925.892 528.654 929.063 523.322 C 930.69 539.249 928.585 554.644 928.072 570.322 C 927.219 596.363 924.112 620.706 917.84 645.996 C 915.818 654.147 911.172 666.267 907.973 674.462 C 904.55 683.231 901.31 695.437 897.624 703.233 C 878.38 743.941 852.376 781.586 824.67 816.971 C 818.847 824.407 800.382 840.346 792.754 847.373 C 760.01 877.543 725.044 900.781 684.494 918.939 C 674.369 922.746 663.893 926.026 653.573 929.298 C 644.118 932.296 633.313 937.816 623.693 939.579 C 594.426 944.943 563.827 949.382 534.426 953.691 C 508.644 957.47 479.79 952.396 454.362 948.288 C 440.099 945.619 420.93 943.219 407.254 939.396 C 352.298 924.033 301.52 897.672 257.634 861.083 C 246.141 851.501 218.329 825.67 209.029 813.835 C 176.245 771.769 148.112 725.354 129.158 675.381 C 124.267 662.485 123.034 648.07 118.837 636.059 C 106.069 599.517 106.776 569.583 107.144 531.361 z"/>
<path transform="translate(0,0)" fill="rgb(254,166,27)" d="M 513.107 319.153 C 527.201 317.933 533.264 322.254 540.514 333.913 C 539.169 343.427 533.826 363.933 546.495 365.819 C 586.982 371.845 631.036 375.406 630.47 429.112 C 630.377 437.899 612.386 448.661 604.694 452.269 C 590.149 445.015 579.913 429.872 567.013 419.589 C 543.125 400.55 507.114 396.021 479.558 409.476 C 466.749 415.73 459.183 424.349 450.5 435.214 C 451.989 497.717 524.775 502.418 570.178 516.255 C 630.365 534.598 659.073 595.81 618.825 648.232 C 600.191 672.501 564.717 685.929 535.213 689.288 C 536.428 700.77 537.5 710.664 539.523 722.054 C 531.828 724.284 524.29 726.837 516.416 729.071 C 513.67 729.331 509.705 729.475 507.212 728.244 C 492.537 720.997 496.415 714.402 501.841 702.703 C 497.843 690.499 465.596 682.317 453.986 679.419 C 424.975 672.178 407.136 655.301 399.539 625.898 C 403.946 616.805 420.169 595.061 430.373 602.359 C 452.574 618.239 462.649 637.085 489.989 648.193 C 522.843 663.798 573.231 648.102 587.022 612.843 C 607.65 555.383 501.62 552.678 470.285 538.669 C 436.358 523.501 404.095 500.475 407.191 460.299 C 408.286 446.093 406.018 424.648 411.723 411.464 C 421.254 389.44 446.196 371.86 470.06 369.098 C 476.227 368.354 490.774 366.839 495.467 364.718 C 500.432 358.438 494.653 331.299 513.107 319.153 z"/>
<path transform="translate(0,0)" fill="rgb(254,166,27)" d="M 647.119 208.92 L 648.017 208.698 C 660.276 212.897 666.395 217.765 677.135 222.993 C 749.462 258.203 801.553 319.874 830.024 394.497 C 831.749 399.02 837.933 411.308 837.914 415.18 C 836.654 414.085 836.01 411.413 835.365 409.623 C 828.611 397.442 808.637 342.848 799.378 337.729 C 773.093 323.194 789.442 318.191 775.699 302.065 C 745.296 266.389 704.839 236.826 662.671 216.453 C 657.861 214.129 651.975 211.77 647.49 209.142 L 647.119 208.92 z"/>
</svg>