<?xml version="1.0" standalone="no"?>
<!DOCTYPE svg PUBLIC "-//W3C//DTD SVG 20010904//EN"
 "http://www.w3.org/TR/2001/REC-SVG-20010904/DTD/svg10.dtd">
<svg version="1.0" xmlns="http://www.w3.org/2000/svg"
 width="147.000000pt" height="137.000000pt" viewBox="0 0 147.000000 137.000000"
 preserveAspectRatio="xMidYMid meet">

<g transform="translate(0.000000,137.000000) scale(0.100000,-0.100000)"
fill="#000000" stroke="none">
<path d="M484 1116 c-131 -32 -203 -123 -204 -257 0 -76 16 -123 62 -174 42
-49 106 -79 226 -109 164 -41 212 -76 212 -158 0 -86 -75 -133 -202 -126 -90
4 -141 28 -229 104 l-64 55 -3 -96 c-2 -62 1 -102 9 -111 18 -22 98 -63 158
-81 76 -23 227 -22 305 1 45 13 70 29 110 69 59 60 76 103 76 199 0 161 -70
234 -273 283 -61 16 -127 35 -146 44 -110 52 -95 190 24 222 58 16 154 6 210
-22 26 -13 72 -47 102 -76 30 -29 57 -53 59 -53 2 0 4 68 4 150 l0 150 -192
-1 c-116 0 -213 -6 -244 -13z"/>
<path d="M855 725 c22 -14 47 -35 56 -45 12 -14 34 -19 103 -21 82 -4 89 -6
112 -32 32 -38 32 -90 -1 -122 -20 -21 -34 -25 -80 -25 l-56 0 3 -47 3 -48 68
-5 c81 -6 106 -29 107 -97 0 -34 -5 -46 -31 -67 -28 -24 -38 -26 -120 -26 -70
0 -88 3 -83 13 4 6 -13 -7 -38 -30 -25 -23 -61 -49 -79 -59 -33 -18 -34 -18
-9 -22 14 -2 99 -2 190 0 120 4 175 9 200 21 88 39 132 145 96 230 -14 36 -69
87 -92 87 -22 0 -16 16 11 28 64 29 87 146 42 212 -44 67 -71 75 -267 78
l-175 4 40 -27z"/>
</g>
</svg>
